<svg xmlns="http://www.w3.org/2000/svg" xmlns:xlink="http://www.w3.org/1999/xlink" xmlns:fi="http://pattern.flaticon.com/" x="0" y="0" width="700" height="350" viewBox="0 0 2450 1225"><rect x="0px" y="0px" width="100%" height="100%" opacity="0" fill="#ffffff"/><defs><g transform="matrix(0.1697916491523753 0.04549553527192747 -0.04549553527192747 0.1697916491523753 3.1801948466053567 280.8864807873785)" id="L1_359"><path d="M290.147,148.003L265.28,128.42c-5.443-4.287-13.117-4.287-18.561,0l-24.867,19.583    c-6.509,5.125-7.63,14.557-2.504,21.065c5.125,6.509,14.555,7.629,21.064,2.504l0.587-0.462v40.017c0,8.284,6.716,15,15,15    s15-6.716,15-15V171.11l0.587,0.462c2.75,2.166,6.021,3.216,9.271,3.216c4.439,0,8.835-1.962,11.794-5.72    C297.777,162.56,296.656,153.129,290.147,148.003z"/><path d="M292.651,342.931c-5.125-6.509-14.556-7.629-21.064-2.504L271,340.889v-40.017c0-8.284-6.716-15-15-15s-15,6.716-15,15    v40.017l-0.587-0.462c-6.508-5.124-15.939-4.004-21.064,2.504c-5.126,6.508-4.005,15.939,2.504,21.065l24.867,19.583    c2.722,2.144,6.001,3.215,9.28,3.215s6.559-1.072,9.28-3.215l24.867-19.583C296.656,358.871,297.777,349.439,292.651,342.931z"/><path d="M497,241H351.333V95.333c0-8.284-6.716-15-15-15H175.667c-8.284,0-15,6.716-15,15V241H15c-8.284,0-15,6.716-15,15v160.667    c0,8.284,6.716,15,15,15h482c8.284,0,15-6.716,15-15V256C512,247.716,505.284,241,497,241z M160.667,401.667H30V271h130.667    V401.667z M321.333,401.667H190.667V271h130.666V401.667z M321.333,241H190.667V110.333h130.666V241z M482,401.667H351.333V271    H482V401.667z"/><path d="M463.914,327.052l-19.582-24.867c-5.127-6.509-14.557-7.631-21.065-2.504c-6.509,5.125-7.63,14.556-2.505,21.065    l0.462,0.587h-40.018c-8.284,0-15,6.716-15,15s6.715,15,14.999,15h40.019l-0.462,0.586c-5.126,6.509-4.005,15.939,2.504,21.065    c2.75,2.166,6.021,3.216,9.271,3.216c4.439,0,8.835-1.962,11.794-5.72l19.582-24.867    C468.2,340.169,468.201,332.497,463.914,327.052z"/><path d="M130.795,321.333H90.777l0.462-0.587c5.125-6.509,4.004-15.94-2.505-21.065c-6.507-5.124-15.938-4.004-21.065,2.504    l-19.582,24.867c-4.287,5.444-4.286,13.116,0.001,18.561L67.67,370.48c2.96,3.759,7.354,5.721,11.794,5.72    c3.248,0,6.521-1.05,9.271-3.216c6.509-5.125,7.63-14.556,2.504-21.065l-0.462-0.586h40.019c8.284,0,15-6.716,15-15    S139.079,321.333,130.795,321.333z"/></g><g transform="matrix(0.09376409848279747 -0.026446284734473646 0.026446284734473646 0.09376409848279747 210.72612041068317 248.76665094332023)" id="L1_361"><path d="M390.984,67.928h-10.245V30h10.324c8.284,0,15-6.716,15-15s-6.716-15-15-15H120.937c-8.284,0-15,6.716-15,15    s6.716,15,15,15h10.324v37.928h-10.245c-31.013,0-56.244,25.231-56.244,56.244v42.805c0,31.013,25.231,56.244,56.244,56.244    h10.506c3.116,49.242,34.925,90.818,78.859,108.141v42.002h-32.363c-25.782,0-46.757,20.976-46.757,46.758V497    c0,8.284,6.716,15,15,15H365.74c8.284,0,15-6.716,15-15v-76.878c0-25.782-20.975-46.758-46.757-46.758H301.62v-42.002    c43.934-17.323,75.742-58.899,78.859-108.141h10.506c31.013,0,56.244-25.231,56.244-56.244v-42.805    C447.229,93.159,421.997,67.928,390.984,67.928z M131.26,193.221h-10.245c-14.47,0-26.244-11.774-26.244-26.244v-42.805    c0-14.471,11.773-26.244,26.244-26.244h10.245V193.221z M333.983,403.364c9.24,0,16.756,7.518,16.756,16.758V482H161.26v-61.878    c0-9.24,7.517-16.758,16.757-16.758H333.983z M240.38,373.364v-34.34C245.499,339.666,250.711,340,256,340    s10.501-0.334,15.619-0.976v34.34H240.38z M350.74,215.262C350.739,267.501,308.239,310,256,310s-94.739-42.499-94.739-94.738V30    H350.74V215.262z M417.229,166.977c0,14.471-11.773,26.244-26.244,26.244H380.74V97.928h10.245    c14.471,0,26.244,11.773,26.244,26.244V166.977z"/><path d="M319.85,119.288c-3.342-10.284-12.853-17.194-23.666-17.194h-12.618l-3.899-11.999    C276.324,79.809,266.813,72.898,256,72.898s-20.324,6.91-23.666,17.194l-3.899,12h-12.618c-10.813,0-20.324,6.91-23.666,17.194    c-3.342,10.285,0.291,21.466,9.04,27.823l10.208,7.416l-3.899,11.999c-3.343,10.287,0.29,21.467,9.038,27.824    c8.749,6.356,20.504,6.356,29.255,0L256,186.932l10.208,7.417c4.375,3.178,9.5,4.767,14.626,4.767    c5.126,0,10.254-1.59,14.628-4.768c8.748-6.356,12.381-17.537,9.039-27.822l-3.899-11.999l10.209-7.417    C319.559,140.754,323.192,129.573,319.85,119.288z M279.96,132.442c-8.746,6.357-12.378,17.537-9.037,27.821l0.182,0.561    l-0.478-0.348c-4.374-3.178-9.5-4.767-14.626-4.767c-5.126,0-10.252,1.589-14.627,4.768l-0.477,0.347l0.182-0.562    c3.341-10.283-0.291-21.463-9.04-27.822l-0.478-0.347h0.59c10.814,0,20.325-6.91,23.666-17.194l0.183-0.562l0.183,0.561    c3.341,10.285,12.852,17.195,23.666,17.195h0.591L279.96,132.442z"/></g><path d="M496.979,160.106H382.214c-8.296,0-15.021,6.725-15.021,15.021v100.468h-96.171V49.638    c0-8.296-6.725-15.021-15.021-15.021h-75.148c-8.296,0-15.021,6.725-15.021,15.021v59.876H87.938    c-8.296,0-15.021,6.725-15.021,15.021v151.06H15.021C6.725,275.595,0,282.32,0,290.616l0.362,171.744    c0,8.296,6.725,15.021,15.021,15.021h481.595c8.296,0,15.021-6.725,15.021-15.021V175.127    C512,166.831,505.275,160.106,496.979,160.106z M271.021,305.637h210.936v55.83H271.021V305.637z M102.959,139.557h77.893    c8.296,0,15.022-6.725,15.022-15.021V64.659h45.105v210.936h-52.148v-65.38c0-8.296-6.725-15.021-15.021-15.021h-70.851V139.557z     M30.042,305.637h57.895c8.297,0.001,15.022-6.725,15.022-15.021v-65.38h55.829v65.38c0,8.296,6.725,15.021,15.021,15.021h67.169    v55.83H30.042V305.637z M115.852,447.339H30.405V391.51h85.447V447.339z M366.468,447.339H145.895V391.51h220.573V447.339z     M396.51,447.339V391.51h85.447v55.829H396.51z M481.958,275.595h-84.723v-85.447h84.723V275.595z" transform="matrix(-0.02070587122611902 0.047327702191503195 -0.047327702191503195 -0.02070587122611902 245.8866813125781 57.20843426576655)" id="L1_362"/><g transform="matrix(0.078125 0 0 0.078125 72.5 82.5)" id="L1_363"><path d="M277.211,407.668l8.495-8.495c5.86-5.858,5.86-15.356,0.002-21.213c-5.857-5.857-15.355-5.857-21.213,0L256,386.455    l-8.495-8.495c-5.857-5.857-15.355-5.857-21.213,0c-5.858,5.857-5.858,15.355,0,21.213l8.495,8.495l-8.495,8.495    c-5.858,5.857-5.858,15.355,0,21.213c2.929,2.929,6.768,4.394,10.606,4.394s7.678-1.465,10.606-4.394l8.495-8.495l8.495,8.495    c2.929,2.929,6.768,4.394,10.606,4.394c3.838,0,7.678-1.465,10.606-4.394c5.858-5.857,5.858-15.355,0-21.213L277.211,407.668z"/><path d="M256,303.336c-57.529,0-104.332,46.803-104.332,104.332S198.471,512,256,512s104.332-46.803,104.332-104.332    S313.529,303.336,256,303.336z M256,482c-40.987,0-74.332-33.345-74.332-74.332s33.345-74.332,74.332-74.332    s74.332,33.345,74.332,74.332S296.987,482,256,482z"/><path d="M407.668,154.029c-57.529,0-104.332,46.803-104.332,104.332c0,57.529,46.803,104.332,104.332,104.332    S512,315.891,512,258.361C512,200.833,465.197,154.029,407.668,154.029z M407.668,332.693c-40.987,0-74.332-33.345-74.332-74.332    s33.345-74.332,74.332-74.332S482,217.375,482,258.361C482,299.349,448.655,332.693,407.668,332.693z"/><path d="M256,0c-57.529,0-104.332,46.803-104.332,104.332S198.471,208.664,256,208.664s104.332-46.803,104.332-104.332    S313.529,0,256,0z M256,178.664c-40.987,0-74.332-33.345-74.332-74.332S215.013,30,256,30s74.332,33.345,74.332,74.332    S296.987,178.664,256,178.664z"/><path d="M437.474,228.557c-7.961-7.962-18.547-12.347-29.806-12.347c-11.259,0-21.845,4.385-29.805,12.346    c-7.962,7.961-12.346,18.546-12.346,29.805c0,11.259,4.384,21.845,12.345,29.805c7.961,7.962,18.547,12.346,29.806,12.346    c11.259,0,21.845-4.384,29.805-12.345c7.962-7.961,12.346-18.547,12.346-29.806C449.819,247.102,445.435,236.517,437.474,228.557z     M416.259,266.953c-2.294,2.295-5.346,3.559-8.591,3.559s-6.297-1.264-8.592-3.56c-2.295-2.294-3.559-5.346-3.559-8.591    s1.264-6.296,3.559-8.591c0,0,0,0,0.001-0.001c2.294-2.295,5.346-3.559,8.591-3.559s6.297,1.264,8.592,3.56    c2.295,2.295,3.559,5.346,3.559,8.591S418.555,264.658,416.259,266.953z"/><path d="M129.468,220.716h-48.74c-8.284,0-15,6.716-15,15v45.291c0,8.284,6.716,15,15,15h48.74c8.284,0,15-6.716,15-15v-45.291    C144.468,227.432,137.752,220.716,129.468,220.716z M114.468,266.007h-18.74v-15.291h18.74V266.007z"/><path d="M104.332,154.029C46.803,154.029,0,200.833,0,258.361c0,57.529,46.803,104.332,104.332,104.332    c57.529,0,104.332-46.802,104.332-104.332C208.664,200.832,161.861,154.029,104.332,154.029z M104.332,332.693    C63.345,332.693,30,299.349,30,258.361c0-40.987,33.345-74.332,74.332-74.332s74.332,33.345,74.332,74.332    C178.664,299.349,145.319,332.693,104.332,332.693z"/><path d="M302.809,116.933l-33.943-56.627c-2.71-4.521-7.594-7.288-12.865-7.288s-10.155,2.767-12.865,7.288l-33.943,56.627    c-2.778,4.634-2.85,10.404-0.187,15.105c2.662,4.701,7.647,7.607,13.051,7.607h67.887c5.403,0,10.389-2.906,13.052-7.607    C305.659,127.337,305.588,121.567,302.809,116.933z M248.536,109.645L256,97.193l7.464,12.452H248.536z"/></g></defs><g fi:class="KUsePattern"><pattern id="pattern_L1_359" width="350" height="350" patternUnits="userSpaceOnUse"><use xlink:href="#L1_359" x="-350" y="-350"/><use xlink:href="#L1_359" x="0" y="-350"/><use xlink:href="#L1_359" x="350" y="-350"/><use xlink:href="#L1_359" x="-350" y="0"/><use xlink:href="#L1_359" x="0" y="0"/><use xlink:href="#L1_359" x="350" y="0"/><use xlink:href="#L1_359" x="-350" y="350"/><use xlink:href="#L1_359" x="0" y="350"/><use xlink:href="#L1_359" x="350" y="350"/></pattern><rect x="0" y="0" width="100%" height="100%" fill-opacity="10%" fill="url(#pattern_L1_359)"/></g><g fi:class="KUsePattern"><pattern id="pattern_L1_361" width="350" height="350" patternUnits="userSpaceOnUse"><use xlink:href="#L1_361" x="-350" y="-350"/><use xlink:href="#L1_361" x="0" y="-350"/><use xlink:href="#L1_361" x="350" y="-350"/><use xlink:href="#L1_361" x="-350" y="0"/><use xlink:href="#L1_361" x="0" y="0"/><use xlink:href="#L1_361" x="350" y="0"/><use xlink:href="#L1_361" x="-350" y="350"/><use xlink:href="#L1_361" x="0" y="350"/><use xlink:href="#L1_361" x="350" y="350"/></pattern><rect x="0" y="0" width="100%" height="100%" fill-opacity="10%" fill="url(#pattern_L1_361)"/></g><g fi:class="KUsePattern"><pattern id="pattern_L1_362" width="350" height="350" patternUnits="userSpaceOnUse"><use xlink:href="#L1_362" x="-350" y="-350"/><use xlink:href="#L1_362" x="0" y="-350"/><use xlink:href="#L1_362" x="350" y="-350"/><use xlink:href="#L1_362" x="-350" y="0"/><use xlink:href="#L1_362" x="0" y="0"/><use xlink:href="#L1_362" x="350" y="0"/><use xlink:href="#L1_362" x="-350" y="350"/><use xlink:href="#L1_362" x="0" y="350"/><use xlink:href="#L1_362" x="350" y="350"/></pattern><rect x="0" y="0" width="100%" height="100%" fill-opacity="10%" fill="url(#pattern_L1_362)"/></g><g fi:class="KUsePattern"><pattern id="pattern_L1_363" width="350" height="350" patternUnits="userSpaceOnUse"><use xlink:href="#L1_363" x="-350" y="-350"/><use xlink:href="#L1_363" x="0" y="-350"/><use xlink:href="#L1_363" x="350" y="-350"/><use xlink:href="#L1_363" x="-350" y="0"/><use xlink:href="#L1_363" x="0" y="0"/><use xlink:href="#L1_363" x="350" y="0"/><use xlink:href="#L1_363" x="-350" y="350"/><use xlink:href="#L1_363" x="0" y="350"/><use xlink:href="#L1_363" x="350" y="350"/></pattern><rect x="0" y="0" width="100%" height="100%" fill-opacity="10%" fill="url(#pattern_L1_363)"/></g></svg>